<svg xmlns="http://www.w3.org/2000/svg" aria-hidden="true" style="position:absolute;width:0;height:0;overflow:hidden">
  <defs>
    <symbol id="icon-logo-project" viewBox="0 0 31 32">
        <path d="M27.673 18.563l-6.748-15.457-1.471-1.020-1.725-0.549-2.334-0.628-2.74 1.177-1.826 1.020 6.9 15.457h9.944z"></path>
        <path d="M3.455 13.395l6.748 15.493 1.471 1.022 1.725 0.55 2.334 0.629 2.74-1.18 1.826-1.022-6.9-15.493h-9.944z"></path>
        <path d="M10.466 3.309l-10.476 15.142 10.476 0.112 7.573-15.254c0.532-1.56 2.195-0.65 2.961 0-3.271-5.992-8.385-2.497-10.533 0z"></path>
        <path d="M20.619 28.691l10.476-15.142-10.476-0.112-7.573 15.254c-0.532 1.56-2.195 0.65-2.961 0 3.271 5.992 8.385 2.497 10.533 0z"></path>
    </symbol>
    <symbol id="icon-open-menu" viewBox="0 0 46 32">
        <path d="M0 2.274c0-1.257 1.019-2.274 2.274-2.274h18.309c0.603 0 1.182 0.24 1.608 0.666s0.666 1.005 0.666 1.608c0 0.603-0.24 1.182-0.666 1.608s-1.005 0.666-1.608 0.666h-18.309c-0.603 0-1.182-0.24-1.608-0.666s-0.666-1.005-0.666-1.608zM0 16c0-1.257 1.019-2.274 2.274-2.274h41.166c0.603 0 1.182 0.24 1.608 0.666s0.666 1.005 0.666 1.608c0 0.603-0.24 1.182-0.666 1.608s-1.005 0.666-1.608 0.666h-41.166c-0.603 0-1.182-0.24-1.608-0.666s-0.666-1.005-0.666-1.608zM2.274 27.451c-0.603 0-1.182 0.24-1.608 0.666s-0.666 1.005-0.666 1.608c0 0.603 0.24 1.182 0.666 1.608s1.005 0.666 1.608 0.666h27.451c0.603 0 1.182-0.24 1.608-0.666s0.666-1.005 0.666-1.608c0-0.603-0.24-1.182-0.666-1.608s-1.005-0.666-1.608-0.666h-27.451z"></path>
    </symbol>
    <symbol id="icon-close-menu" viewBox="0 0 32 32">
        <path stroke-linejoin="round" stroke-linecap="round" stroke-miterlimit="4" stroke-width="1.7333" d="M24 8l-16 16"></path>
        <path stroke-linejoin="round" stroke-linecap="round" stroke-miterlimit="4" stroke-width="1.7333" d="M8 8l16 16"></path>
    </symbol>
  </defs>
</svg>