<?xml version="1.0" standalone="no"?>
<!DOCTYPE svg PUBLIC "-//W3C//DTD SVG 20010904//EN"
 "http://www.w3.org/TR/2001/REC-SVG-20010904/DTD/svg10.dtd">
<svg version="1.0" xmlns="http://www.w3.org/2000/svg"
 width="700.000000pt" height="700.000000pt" viewBox="0 0 700.000000 700.000000"
 preserveAspectRatio="xMidYMid meet">
<metadata>
Created by potrace 1.14, written by Peter Selinger 2001-2017
</metadata>
<g transform="translate(0.000000,700.000000) scale(0.100000,-0.100000)"
fill="#000000" stroke="none">
<path d="M3540 6990 c-120 -21 -205 -44 -313 -86 -349 -134 -735 -434 -951
-738 -50 -70 -109 -154 -131 -186 -22 -31 -75 -106 -118 -166 -87 -121 -500
-701 -635 -892 -228 -321 -384 -540 -407 -572 -57 -78 -126 -174 -836 -1175
-70 -99 -133 -185 -138 -192 -6 -7 -11 -14 -11 -15 0 -2 64 -4 143 -5 903 -10
1131 -13 1135 -18 5 -5 62 -130 234 -515 55 -124 111 -247 123 -275 13 -27 61
-135 108 -240 47 -104 99 -220 116 -258 17 -37 31 -69 31 -71 0 -3 20 -47 45
-99 25 -53 45 -97 45 -100 0 -2 14 -35 32 -73 17 -38 32 -71 33 -74 0 -3 15
-36 33 -73 18 -38 32 -74 32 -81 0 -8 7 -19 15 -26 8 -7 15 -17 15 -22 0 -5
13 -39 30 -75 17 -35 30 -66 30 -68 0 -2 17 -41 39 -87 21 -46 41 -93 45 -106
4 -13 31 -58 59 -100 273 -414 589 -606 982 -597 138 4 144 4 275 36 255 63
541 223 800 449 41 35 83 73 93 84 9 10 17 15 17 11 0 -5 10 4 23 21 12 16 41
49 64 74 35 36 158 201 233 311 8 12 65 91 125 175 61 85 144 202 185 260 41
59 80 112 85 118 6 6 21 28 34 49 13 21 28 43 34 50 7 7 32 42 57 77 24 36 48
70 52 75 5 6 52 72 106 147 53 76 133 188 177 249 44 62 88 124 97 138 10 14
50 72 90 128 40 55 131 182 201 282 70 99 135 187 143 195 7 8 14 17 14 20 0
3 48 74 107 156 60 82 187 261 283 396 96 136 219 308 272 383 54 75 98 138
98 141 0 3 -48 6 -107 7 -721 7 -1149 15 -1155 21 -3 4 -39 79 -78 167 -40 88
-83 185 -97 215 -14 30 -54 120 -90 200 -36 80 -76 170 -90 200 -14 30 -42 93
-63 140 -21 47 -49 110 -63 140 -14 30 -53 118 -87 195 -34 77 -78 173 -96
213 -19 40 -34 74 -34 76 0 3 -16 40 -36 83 -20 43 -75 164 -121 268 -47 105
-96 212 -109 239 -13 28 -24 54 -24 60 0 14 -124 199 -195 291 -187 241 -423
393 -681 439 -80 14 -255 17 -324 6z m-310 -2390 c0 -6 182 -408 265 -585 8
-16 30 -64 48 -105 19 -41 54 -115 77 -165 23 -49 43 -94 45 -100 1 -5 21 -50
45 -100 23 -49 57 -122 76 -162 19 -39 34 -74 34 -77 0 -2 22 -51 49 -108 27
-57 65 -138 85 -180 35 -76 37 -78 71 -78 19 0 35 -4 35 -9 0 -5 -15 -35 -33
-68 -18 -32 -41 -78 -52 -103 -10 -25 -22 -50 -26 -55 -4 -6 -42 -79 -85 -164
l-77 -153 -16 34 c-9 18 -33 69 -53 113 -54 120 -96 209 -145 315 -25 52 -46
100 -47 105 -2 6 -24 55 -50 110 -26 55 -76 163 -111 240 -35 77 -76 169 -93
205 -16 36 -57 125 -91 198 -34 73 -58 138 -55 144 4 6 3 8 -3 5 -6 -4 -20 16
-33 46 -71 170 -69 167 -118 167 l-44 0 20 33 c11 17 75 141 142 274 105 208
140 264 140 223z"/>
</g>
</svg>
